<svg width="23" height="16" viewBox="0 0 23 16" fill="none" xmlns="http://www.w3.org/2000/svg">
<path d="M11.5 0.25C6.5 0.25 2.23 3.36 0.5 7.75C2.23 12.14 6.5 15.25 11.5 15.25C16.5 15.25 20.77 12.14 22.5 7.75C20.77 3.36 16.5 0.25 11.5 0.25ZM11.5 12.75C8.74 12.75 6.5 10.51 6.5 7.75C6.5 4.99 8.74 2.75 11.5 2.75C14.26 2.75 16.5 4.99 16.5 7.75C16.5 10.51 14.26 12.75 11.5 12.75ZM11.5 4.75C9.84 4.75 8.5 6.09 8.5 7.75C8.5 9.41 9.84 10.75 11.5 10.75C13.16 10.75 14.5 9.41 14.5 7.75C14.5 6.09 13.16 4.75 11.5 4.75Z" fill="#B3B3B3"/>
</svg>
